<mxfile host="app.diagrams.net" modified="2021-01-03T14:44:13.011Z" agent="5.0 (Windows)" etag="XiKf506nbYAamq2szJBR" version="14.1.8" type="github">
  <diagram id="9z8EY5rIGbtekofDaFET" name="Page-1">
    <mxGraphModel dx="1038" dy="575" grid="1" gridSize="10" guides="1" tooltips="1" connect="1" arrows="1" fold="1" page="1" pageScale="1" pageWidth="850" pageHeight="1100" math="0" shadow="0">
      <root>
        <mxCell id="0" />
        <mxCell id="1" parent="0" />
        <mxCell id="PB8CFxIYFoDpp9Qje6gj-5" value="customer" style="swimlane;fontStyle=0;childLayout=stackLayout;horizontal=1;startSize=26;horizontalStack=0;resizeParent=1;resizeParentMax=0;resizeLast=0;collapsible=1;marginBottom=0;align=center;fontSize=14;" vertex="1" parent="1">
          <mxGeometry x="220" y="220" width="160" height="116" as="geometry" />
        </mxCell>
        <mxCell id="PB8CFxIYFoDpp9Qje6gj-6" value="ID" style="text;strokeColor=none;fillColor=none;spacingLeft=4;spacingRight=4;overflow=hidden;rotatable=0;points=[[0,0.5],[1,0.5]];portConstraint=eastwest;fontSize=12;" vertex="1" parent="PB8CFxIYFoDpp9Qje6gj-5">
          <mxGeometry y="26" width="160" height="30" as="geometry" />
        </mxCell>
        <mxCell id="PB8CFxIYFoDpp9Qje6gj-40" value="Name" style="text;strokeColor=none;fillColor=none;spacingLeft=4;spacingRight=4;overflow=hidden;rotatable=0;points=[[0,0.5],[1,0.5]];portConstraint=eastwest;fontSize=12;" vertex="1" parent="PB8CFxIYFoDpp9Qje6gj-5">
          <mxGeometry y="56" width="160" height="30" as="geometry" />
        </mxCell>
        <mxCell id="PB8CFxIYFoDpp9Qje6gj-7" value="Adress" style="text;strokeColor=none;fillColor=none;spacingLeft=4;spacingRight=4;overflow=hidden;rotatable=0;points=[[0,0.5],[1,0.5]];portConstraint=eastwest;fontSize=12;" vertex="1" parent="PB8CFxIYFoDpp9Qje6gj-5">
          <mxGeometry y="86" width="160" height="30" as="geometry" />
        </mxCell>
        <mxCell id="PB8CFxIYFoDpp9Qje6gj-17" value="cc_customer" style="swimlane;fontStyle=0;childLayout=stackLayout;horizontal=1;startSize=26;horizontalStack=0;resizeParent=1;resizeParentMax=0;resizeLast=0;collapsible=1;marginBottom=0;align=center;fontSize=14;" vertex="1" parent="1">
          <mxGeometry x="380" y="80" width="160" height="86" as="geometry" />
        </mxCell>
        <mxCell id="PB8CFxIYFoDpp9Qje6gj-18" value="cc_id" style="text;strokeColor=none;fillColor=none;spacingLeft=4;spacingRight=4;overflow=hidden;rotatable=0;points=[[0,0.5],[1,0.5]];portConstraint=eastwest;fontSize=12;" vertex="1" parent="PB8CFxIYFoDpp9Qje6gj-17">
          <mxGeometry y="26" width="160" height="30" as="geometry" />
        </mxCell>
        <mxCell id="PB8CFxIYFoDpp9Qje6gj-19" value="customer_id" style="text;strokeColor=none;fillColor=none;spacingLeft=4;spacingRight=4;overflow=hidden;rotatable=0;points=[[0,0.5],[1,0.5]];portConstraint=eastwest;fontSize=12;" vertex="1" parent="PB8CFxIYFoDpp9Qje6gj-17">
          <mxGeometry y="56" width="160" height="30" as="geometry" />
        </mxCell>
        <mxCell id="PB8CFxIYFoDpp9Qje6gj-21" style="edgeStyle=orthogonalEdgeStyle;rounded=0;orthogonalLoop=1;jettySize=auto;html=1;exitX=1;exitY=0.5;exitDx=0;exitDy=0;" edge="1" parent="1" source="PB8CFxIYFoDpp9Qje6gj-6" target="PB8CFxIYFoDpp9Qje6gj-19">
          <mxGeometry relative="1" as="geometry" />
        </mxCell>
        <mxCell id="PB8CFxIYFoDpp9Qje6gj-22" value="credit_card" style="swimlane;fontStyle=0;childLayout=stackLayout;horizontal=1;startSize=26;horizontalStack=0;resizeParent=1;resizeParentMax=0;resizeLast=0;collapsible=1;marginBottom=0;align=center;fontSize=14;" vertex="1" parent="1">
          <mxGeometry x="70" y="80" width="160" height="116" as="geometry" />
        </mxCell>
        <mxCell id="PB8CFxIYFoDpp9Qje6gj-23" value="ID" style="text;strokeColor=none;fillColor=none;spacingLeft=4;spacingRight=4;overflow=hidden;rotatable=0;points=[[0,0.5],[1,0.5]];portConstraint=eastwest;fontSize=12;" vertex="1" parent="PB8CFxIYFoDpp9Qje6gj-22">
          <mxGeometry y="26" width="160" height="30" as="geometry" />
        </mxCell>
        <mxCell id="PB8CFxIYFoDpp9Qje6gj-24" value="number" style="text;strokeColor=none;fillColor=none;spacingLeft=4;spacingRight=4;overflow=hidden;rotatable=0;points=[[0,0.5],[1,0.5]];portConstraint=eastwest;fontSize=12;" vertex="1" parent="PB8CFxIYFoDpp9Qje6gj-22">
          <mxGeometry y="56" width="160" height="30" as="geometry" />
        </mxCell>
        <mxCell id="PB8CFxIYFoDpp9Qje6gj-25" value="svv" style="text;strokeColor=none;fillColor=none;spacingLeft=4;spacingRight=4;overflow=hidden;rotatable=0;points=[[0,0.5],[1,0.5]];portConstraint=eastwest;fontSize=12;" vertex="1" parent="PB8CFxIYFoDpp9Qje6gj-22">
          <mxGeometry y="86" width="160" height="30" as="geometry" />
        </mxCell>
        <mxCell id="PB8CFxIYFoDpp9Qje6gj-26" style="edgeStyle=orthogonalEdgeStyle;rounded=0;orthogonalLoop=1;jettySize=auto;html=1;exitX=1;exitY=0.5;exitDx=0;exitDy=0;" edge="1" parent="1" source="PB8CFxIYFoDpp9Qje6gj-23" target="PB8CFxIYFoDpp9Qje6gj-18">
          <mxGeometry relative="1" as="geometry" />
        </mxCell>
        <mxCell id="PB8CFxIYFoDpp9Qje6gj-27" value="order" style="swimlane;fontStyle=0;childLayout=stackLayout;horizontal=1;startSize=26;horizontalStack=0;resizeParent=1;resizeParentMax=0;resizeLast=0;collapsible=1;marginBottom=0;align=center;fontSize=14;" vertex="1" parent="1">
          <mxGeometry x="370" y="350" width="160" height="146" as="geometry" />
        </mxCell>
        <mxCell id="PB8CFxIYFoDpp9Qje6gj-28" value="ID" style="text;strokeColor=none;fillColor=none;spacingLeft=4;spacingRight=4;overflow=hidden;rotatable=0;points=[[0,0.5],[1,0.5]];portConstraint=eastwest;fontSize=12;" vertex="1" parent="PB8CFxIYFoDpp9Qje6gj-27">
          <mxGeometry y="26" width="160" height="30" as="geometry" />
        </mxCell>
        <mxCell id="PB8CFxIYFoDpp9Qje6gj-30" value="cc" style="text;strokeColor=none;fillColor=none;spacingLeft=4;spacingRight=4;overflow=hidden;rotatable=0;points=[[0,0.5],[1,0.5]];portConstraint=eastwest;fontSize=12;" vertex="1" parent="PB8CFxIYFoDpp9Qje6gj-27">
          <mxGeometry y="56" width="160" height="30" as="geometry" />
        </mxCell>
        <mxCell id="PB8CFxIYFoDpp9Qje6gj-29" value="Adress" style="text;strokeColor=none;fillColor=none;spacingLeft=4;spacingRight=4;overflow=hidden;rotatable=0;points=[[0,0.5],[1,0.5]];portConstraint=eastwest;fontSize=12;" vertex="1" parent="PB8CFxIYFoDpp9Qje6gj-27">
          <mxGeometry y="86" width="160" height="30" as="geometry" />
        </mxCell>
        <mxCell id="PB8CFxIYFoDpp9Qje6gj-32" value="customer (null if guest)" style="text;strokeColor=none;fillColor=none;spacingLeft=4;spacingRight=4;overflow=hidden;rotatable=0;points=[[0,0.5],[1,0.5]];portConstraint=eastwest;fontSize=12;" vertex="1" parent="PB8CFxIYFoDpp9Qje6gj-27">
          <mxGeometry y="116" width="160" height="30" as="geometry" />
        </mxCell>
        <mxCell id="PB8CFxIYFoDpp9Qje6gj-31" style="edgeStyle=orthogonalEdgeStyle;rounded=0;orthogonalLoop=1;jettySize=auto;html=1;exitX=0;exitY=0.5;exitDx=0;exitDy=0;entryX=0;entryY=0.5;entryDx=0;entryDy=0;" edge="1" parent="1" source="PB8CFxIYFoDpp9Qje6gj-23" target="PB8CFxIYFoDpp9Qje6gj-30">
          <mxGeometry relative="1" as="geometry" />
        </mxCell>
        <mxCell id="PB8CFxIYFoDpp9Qje6gj-33" style="edgeStyle=orthogonalEdgeStyle;rounded=0;orthogonalLoop=1;jettySize=auto;html=1;exitX=1;exitY=0.5;exitDx=0;exitDy=0;entryX=1;entryY=0.5;entryDx=0;entryDy=0;" edge="1" parent="1" source="PB8CFxIYFoDpp9Qje6gj-6" target="PB8CFxIYFoDpp9Qje6gj-32">
          <mxGeometry relative="1" as="geometry" />
        </mxCell>
        <mxCell id="PB8CFxIYFoDpp9Qje6gj-34" value="Adress" style="swimlane;fontStyle=0;childLayout=stackLayout;horizontal=1;startSize=26;horizontalStack=0;resizeParent=1;resizeParentMax=0;resizeLast=0;collapsible=1;marginBottom=0;align=center;fontSize=14;" vertex="1" parent="1">
          <mxGeometry x="120" y="430" width="160" height="146" as="geometry" />
        </mxCell>
        <mxCell id="PB8CFxIYFoDpp9Qje6gj-38" value="ID" style="text;strokeColor=none;fillColor=none;spacingLeft=4;spacingRight=4;overflow=hidden;rotatable=0;points=[[0,0.5],[1,0.5]];portConstraint=eastwest;fontSize=12;" vertex="1" parent="PB8CFxIYFoDpp9Qje6gj-34">
          <mxGeometry y="26" width="160" height="30" as="geometry" />
        </mxCell>
        <mxCell id="PB8CFxIYFoDpp9Qje6gj-35" value="Street" style="text;strokeColor=none;fillColor=none;spacingLeft=4;spacingRight=4;overflow=hidden;rotatable=0;points=[[0,0.5],[1,0.5]];portConstraint=eastwest;fontSize=12;" vertex="1" parent="PB8CFxIYFoDpp9Qje6gj-34">
          <mxGeometry y="56" width="160" height="30" as="geometry" />
        </mxCell>
        <mxCell id="PB8CFxIYFoDpp9Qje6gj-36" value="Nr" style="text;strokeColor=none;fillColor=none;spacingLeft=4;spacingRight=4;overflow=hidden;rotatable=0;points=[[0,0.5],[1,0.5]];portConstraint=eastwest;fontSize=12;" vertex="1" parent="PB8CFxIYFoDpp9Qje6gj-34">
          <mxGeometry y="86" width="160" height="30" as="geometry" />
        </mxCell>
        <mxCell id="PB8CFxIYFoDpp9Qje6gj-37" value="Zip" style="text;strokeColor=none;fillColor=none;spacingLeft=4;spacingRight=4;overflow=hidden;rotatable=0;points=[[0,0.5],[1,0.5]];portConstraint=eastwest;fontSize=12;" vertex="1" parent="PB8CFxIYFoDpp9Qje6gj-34">
          <mxGeometry y="116" width="160" height="30" as="geometry" />
        </mxCell>
        <mxCell id="PB8CFxIYFoDpp9Qje6gj-39" style="edgeStyle=orthogonalEdgeStyle;rounded=0;orthogonalLoop=1;jettySize=auto;html=1;exitX=1;exitY=0.5;exitDx=0;exitDy=0;" edge="1" parent="1" source="PB8CFxIYFoDpp9Qje6gj-38" target="PB8CFxIYFoDpp9Qje6gj-29">
          <mxGeometry relative="1" as="geometry" />
        </mxCell>
        <mxCell id="PB8CFxIYFoDpp9Qje6gj-42" style="edgeStyle=orthogonalEdgeStyle;rounded=0;orthogonalLoop=1;jettySize=auto;html=1;exitX=0;exitY=0.5;exitDx=0;exitDy=0;entryX=0;entryY=0.5;entryDx=0;entryDy=0;" edge="1" parent="1" source="PB8CFxIYFoDpp9Qje6gj-7" target="PB8CFxIYFoDpp9Qje6gj-38">
          <mxGeometry relative="1" as="geometry" />
        </mxCell>
        <mxCell id="PB8CFxIYFoDpp9Qje6gj-43" value="List" style="swimlane;fontStyle=0;childLayout=stackLayout;horizontal=1;startSize=26;horizontalStack=0;resizeParent=1;resizeParentMax=0;resizeLast=0;collapsible=1;marginBottom=0;align=center;fontSize=14;" vertex="1" parent="1">
          <mxGeometry x="340" y="580" width="160" height="116" as="geometry" />
        </mxCell>
        <mxCell id="PB8CFxIYFoDpp9Qje6gj-44" value="Item 1" style="text;strokeColor=none;fillColor=none;spacingLeft=4;spacingRight=4;overflow=hidden;rotatable=0;points=[[0,0.5],[1,0.5]];portConstraint=eastwest;fontSize=12;" vertex="1" parent="PB8CFxIYFoDpp9Qje6gj-43">
          <mxGeometry y="26" width="160" height="30" as="geometry" />
        </mxCell>
        <mxCell id="PB8CFxIYFoDpp9Qje6gj-45" value="Item 2" style="text;strokeColor=none;fillColor=none;spacingLeft=4;spacingRight=4;overflow=hidden;rotatable=0;points=[[0,0.5],[1,0.5]];portConstraint=eastwest;fontSize=12;" vertex="1" parent="PB8CFxIYFoDpp9Qje6gj-43">
          <mxGeometry y="56" width="160" height="30" as="geometry" />
        </mxCell>
        <mxCell id="PB8CFxIYFoDpp9Qje6gj-46" value="Item 3" style="text;strokeColor=none;fillColor=none;spacingLeft=4;spacingRight=4;overflow=hidden;rotatable=0;points=[[0,0.5],[1,0.5]];portConstraint=eastwest;fontSize=12;" vertex="1" parent="PB8CFxIYFoDpp9Qje6gj-43">
          <mxGeometry y="86" width="160" height="30" as="geometry" />
        </mxCell>
      </root>
    </mxGraphModel>
  </diagram>
</mxfile>
